<?xml version="1.0" encoding="UTF-8" standalone="no"?>
<svg
   xmlns:dc="http://purl.org/dc/elements/1.1/"
   xmlns:cc="http://creativecommons.org/ns#"
   xmlns:rdf="http://www.w3.org/1999/02/22-rdf-syntax-ns#"
   xmlns:svg="http://www.w3.org/2000/svg"
   xmlns="http://www.w3.org/2000/svg"
   xmlns:sodipodi="http://sodipodi.sourceforge.net/DTD/sodipodi-0.dtd"
   xmlns:inkscape="http://www.inkscape.org/namespaces/inkscape"
   width="200"
   height="20"
   viewBox="0 0 52.916664 5.2916669"
   version="1.1"
   id="svg8"
   inkscape:export-filename="/home/mixer/projects/LD48/Assets/tile.png"
   inkscape:export-xdpi="480"
   inkscape:export-ydpi="480"
   inkscape:version="1.0.2 (e86c870879, 2021-01-15, custom)"
   sodipodi:docname="tile.svg">
  <defs
     id="defs2" />
  <sodipodi:namedview
     id="base"
     pagecolor="#ffffff"
     bordercolor="#666666"
     borderopacity="1.0"
     inkscape:pageopacity="0.0"
     inkscape:pageshadow="2"
     inkscape:zoom="22.853691"
     inkscape:cx="180.393"
     inkscape:cy="6.8631789"
     inkscape:document-units="mm"
     inkscape:current-layer="layer1"
     inkscape:document-rotation="0"
     showgrid="false"
     units="px"
     inkscape:window-width="2560"
     inkscape:window-height="1396"
     inkscape:window-x="1920"
     inkscape:window-y="44"
     inkscape:window-maximized="1" />
  <metadata
     id="metadata5">
    <rdf:RDF>
      <cc:Work
         rdf:about="">
        <dc:format>image/svg+xml</dc:format>
        <dc:type
           rdf:resource="http://purl.org/dc/dcmitype/StillImage" />
        <dc:title></dc:title>
      </cc:Work>
    </rdf:RDF>
  </metadata>
  <g
     inkscape:label="Layer 1"
     inkscape:groupmode="layer"
     id="layer1">
    <rect
       style="opacity:1;fill:#667388;fill-opacity:1;stroke-width:0.682953;stroke-linecap:round;stroke-linejoin:round;paint-order:markers stroke fill"
       id="rect833"
       width="5.2916665"
       height="5.2916665"
       x="-1.7763568e-15"
       y="0" />
    <rect
       style="opacity:1;fill:#667388;fill-opacity:1;stroke-width:0.682953;stroke-linecap:round;stroke-linejoin:round;paint-order:markers stroke fill"
       id="rect871"
       width="5.2916665"
       height="5.2916665"
       x="5.2916665"
       y="0" />
    <circle
       style="opacity:1;fill:#89ade5;fill-opacity:1;stroke-width:0.822417;stroke-linecap:round;stroke-linejoin:round;paint-order:markers stroke fill"
       id="path873"
       cx="6.1419563"
       cy="1.4361279"
       r="0.51383644" />
    <circle
       style="opacity:1;fill:#89ade5;fill-opacity:1;stroke-width:1.13093;stroke-linecap:round;stroke-linejoin:round;paint-order:markers stroke fill"
       id="circle875"
       cx="9.3135471"
       cy="2.7108607"
       r="0.70659322" />
    <circle
       style="opacity:1;fill:#89ade5;fill-opacity:1;stroke-width:0.390924;stroke-linecap:round;stroke-linejoin:round;paint-order:markers stroke fill"
       id="circle877"
       cx="7.4829021"
       cy="4.2457132"
       r="0.24424408" />
    <circle
       style="opacity:1;fill:#89ade5;fill-opacity:1;stroke-width:0.390924;stroke-linecap:round;stroke-linejoin:round;paint-order:markers stroke fill"
       id="circle879"
       cx="8.4094582"
       cy="0.87445641"
       r="0.24424408" />
    <rect
       style="opacity:1;fill:#667388;fill-opacity:1;stroke-width:0.682953;stroke-linecap:round;stroke-linejoin:round;paint-order:markers stroke fill"
       id="rect881"
       width="5.2916665"
       height="5.2916665"
       x="10.583333"
       y="0" />
    <circle
       style="opacity:1;fill:#e0e589;fill-opacity:1;stroke-width:0.934542;stroke-linecap:round;stroke-linejoin:round;paint-order:markers stroke fill"
       id="circle883"
       cx="14.846071"
       cy="2.0224657"
       r="0.58389068" />
    <circle
       style="opacity:1;fill:#e0e589;fill-opacity:1;stroke-width:1.28512;stroke-linecap:round;stroke-linejoin:round;paint-order:markers stroke fill"
       id="circle885"
       cx="13.715322"
       cy="4.1664777"
       r="0.80292714" />
    <circle
       style="opacity:1;fill:#e0e589;fill-opacity:1;stroke-width:0.44422;stroke-linecap:round;stroke-linejoin:round;paint-order:markers stroke fill"
       id="circle887"
       cx="11.923843"
       cy="2.2308636"
       r="0.27754328" />
    <circle
       style="opacity:1;fill:#e0e589;fill-opacity:1;stroke-width:0.44422;stroke-linecap:round;stroke-linejoin:round;paint-order:markers stroke fill"
       id="circle889"
       cx="13.484893"
       cy="0.93646395"
       r="0.27754328" />
    <rect
       style="opacity:1;fill:#667388;fill-opacity:1;stroke-width:0.682953;stroke-linecap:round;stroke-linejoin:round;paint-order:markers stroke fill"
       id="rect891"
       width="5.2916665"
       height="5.2916665"
       x="15.875"
       y="0" />
    <circle
       style="opacity:1;fill:#e58989;fill-opacity:1;stroke-width:0.838354;stroke-linecap:round;stroke-linejoin:round;paint-order:markers stroke fill"
       id="circle893"
       cx="20.252796"
       cy="2.1942561"
       r="0.52379447" />
    <circle
       style="opacity:1;fill:#e58989;fill-opacity:1;stroke-width:1.15285;stroke-linecap:round;stroke-linejoin:round;paint-order:markers stroke fill"
       id="circle895"
       cx="18.208931"
       cy="2.717164"
       r="0.72028685" />
    <circle
       style="opacity:1;fill:#e58989;fill-opacity:1;stroke-width:0.398499;stroke-linecap:round;stroke-linejoin:round;paint-order:markers stroke fill"
       id="circle897"
       cx="17.095314"
       cy="1.3800037"
       r="0.24897748" />
    <circle
       style="opacity:1;fill:#e58989;fill-opacity:1;stroke-width:0.398499;stroke-linecap:round;stroke-linejoin:round;paint-order:markers stroke fill"
       id="circle899"
       cx="17.058624"
       cy="3.7253814"
       r="0.24897748" />
    <circle
       style="opacity:1;fill:#e58989;fill-opacity:1;stroke-width:0.331307;stroke-linecap:round;stroke-linejoin:round;paint-order:markers stroke fill"
       id="circle901"
       cx="19.711752"
       cy="4.7662148"
       r="0.2069972" />
    <path
       id="rect2174"
       style="opacity:1;fill:#667388;fill-opacity:1;stroke-width:0.682953;stroke-linecap:round;stroke-linejoin:round;paint-order:markers stroke fill"
       d="m 21.166666,-3.6308241 v -5.291667 c 0.168967,1.4996115 0.06054,4.2344479 0.667852,4.6845689 0.840636,0.6230564 2.640512,0.7876747 3.850986,-0.068572 0.680356,-0.4812603 0.0909,-2.7755119 0.772829,-4.6159969 v 5.291667 z"
       sodipodi:nodetypes="ccssccc" />
    <path
       id="path2177"
       style="opacity:1;fill:#667388;fill-opacity:1;stroke-width:0.682953;stroke-linecap:round;stroke-linejoin:round;paint-order:markers stroke fill"
       d="M 26.458333,-8.9224911 H 31.75 c -1.499612,0.168967 -4.234448,0.06054 -4.684569,0.667852 -0.623056,0.840636 -0.787675,2.640512 0.06857,3.850986 0.48126,0.680356 2.775512,0.090899 4.615997,0.772829 h -5.291667 z"
       sodipodi:nodetypes="ccssccc" />
    <path
       id="path2179"
       style="opacity:1;fill:#667388;fill-opacity:1;stroke-width:0.682953;stroke-linecap:round;stroke-linejoin:round;paint-order:markers stroke fill"
       d="m 37.041667,-8.9224911 v 5.291667 c -0.168967,-1.499612 -0.06054,-4.234448 -0.667852,-4.684569 -0.840636,-0.623056 -2.640512,-0.787675 -3.850986,0.068572 -0.680356,0.48126 -0.0909,2.775512 -0.772829,4.615997 v -5.291667 z"
       sodipodi:nodetypes="ccssccc" />
    <path
       id="path2181"
       style="opacity:1;fill:#667388;fill-opacity:1;stroke-width:0.682953;stroke-linecap:round;stroke-linejoin:round;paint-order:markers stroke fill"
       d="m 42.333334,-3.6308241 h -5.291667 c 1.499612,-0.168967 4.234448,-0.06054 4.684569,-0.667852 0.623056,-0.840636 0.787675,-2.640512 -0.06857,-3.850986 -0.48126,-0.680356 -2.775512,-0.090899 -4.615997,-0.772829 h 5.291667 z"
       sodipodi:nodetypes="ccssccc" />
    <path
       style="fill:#0d1219;fill-opacity:1;stroke:none;stroke-width:0.264583px;stroke-linecap:butt;stroke-linejoin:miter;stroke-opacity:1"
       d="m 26.458332,5.2916661 -1.636599,-0.214278 -0.461155,-0.253961 -0.60649,2.04e-4 -0.648569,-0.209072 c -0.333854,0.02114 -0.406107,0.2111921 -0.591836,0.3279747 -0.67356,-9.863e-4 -0.527673,-0.1652825 -0.767459,-0.252717 L 21.85939,3.8676652 C 21.792808,3.3500237 21.650869,3.0846682 21.536883,2.7257315 L 21.386361,1.6427808 21.420207,1.0172391 21.166666,1.5e-7 V 5.2916661 Z"
       id="path2187"
       sodipodi:nodetypes="cccccccccccccc" />
    <path
       style="fill:#0d1219;fill-opacity:1;stroke:none;stroke-width:0.264583px;stroke-linecap:butt;stroke-linejoin:miter;stroke-opacity:1"
       d="m 26.458332,5.2916656 0.153346,-0.4306919 0.06093,-1.2059071 0.253961,-0.461155 -2.04e-4,-0.60649 0.02398,-0.7421206 0.272313,-0.6034864 0.25135,-0.58061098 0.408323,0.03152 0.679045,-0.2255584 1.237536,0.0262684 0.933845,-0.239892 L 31.749997,6.2499999e-7 h -5.291665 z"
       id="path2189"
       sodipodi:nodetypes="ccccccccccccccc" />
    <path
       style="fill:#0d1219;fill-opacity:1;stroke:none;stroke-width:0.264583px;stroke-linecap:butt;stroke-linejoin:miter;stroke-opacity:1"
       d="M 31.749997,6.1249999e-7 C 32.002897,0.15611171 32.187724,0.3822218 32.508956,0.4680681 c 0.389844,-0.0486913 0.624073,-0.15480851 0.87764,-0.25378949 0.193629,0.001153 0.321451,0.13998726 0.461155,0.253961 l 0.60649,-2.04e-4 0.648569,0.209072 0.697038,0.08722 0.580611,0.25134999 -0.03152,0.408323 0.07242,0.7982113 0.348358,1.384551 0.01841,0.6676637 0.253541,1.017239 V 6.1249999e-7 Z"
       id="path2191"
       sodipodi:nodetypes="ccccccccccccccc" />
    <path
       style="fill:#0d1219;fill-opacity:1;stroke:none;stroke-width:0.264583px;stroke-linecap:butt;stroke-linejoin:miter;stroke-opacity:1"
       d="M 42.333327,6.0625e-7 42.119049,1.6365996 l -0.253961,0.461155 2.04e-4,0.60649 c -0.06969,0.2161897 -0.212091,0.2793451 -0.209072,0.648569 l -0.08722,0.697038 -0.25135,0.580611 -0.408323,-0.03152 C 40.732162,4.5492179 40.664985,4.477649 40.377297,4.4498746 l -0.78875,0.3475362 -0.595801,8.218e-4 c -0.38551,-0.00341 -0.646278,0.1332911 -0.933845,0.239892 l -1.017239,0.253541 h 5.291665 z"
       id="path2193"
       sodipodi:nodetypes="ccccccccccccccc" />
    <path
       style="fill:#0d1219;fill-opacity:1;stroke:none;stroke-width:0.264583px;stroke-linecap:butt;stroke-linejoin:miter;stroke-opacity:1"
       d="m 26.458332,5.2916656 0.153346,-0.4306919 0.06093,-1.2059071 0.253961,-0.461155 -2.04e-4,-0.60649 0.02398,-0.7421206 0.272313,-0.6034864 0.25135,-0.58061098 0.408323,0.03152 0.679045,-0.2255584 1.237536,0.0262684 0.933845,-0.239892 L 31.749997,6.2499999e-7 h -5.291665 z"
       id="path2195"
       sodipodi:nodetypes="ccccccccccccccc" />
    <path
       style="fill:#0d1219;fill-opacity:1;stroke:none;stroke-width:0.264583px;stroke-linecap:butt;stroke-linejoin:miter;stroke-opacity:1"
       d="m 43.684624,0.07069761 c 0.187854,0.016548 0.890222,-0.02119301 1.17791,0.006581 l 0.782482,0.02897399 0.674387,-0.00689 c 0.38551,0.00341 0.700081,-0.11647099 0.958275,-0.07710199 L 47.624992,6.0625e-7 H 42.333327 C 42.623135,0.01556021 42.973277,0.15463955 43.310468,0.11484961 Z"
       id="path2197"
       sodipodi:nodetypes="cccccccsc" />
    <path
       style="fill:#0d1219;fill-opacity:1;stroke:none;stroke-width:0.275543px;stroke-linecap:butt;stroke-linejoin:miter;stroke-opacity:1"
       d="m 51.56537,5.2149899 c -0.187854,-0.017947 -0.890223,0.022985 -1.177911,-0.00714 l -0.782482,-0.031424 -0.674387,0.00747 c -0.38551,-0.0037 -0.700081,0.1263205 -0.958276,0.083622 L 47.625,5.2916666 h 5.291667 C 52.626859,5.2747907 52.276718,5.1239504 51.939525,5.1671053 Z"
       id="path2199"
       sodipodi:nodetypes="cccccccsc" />
  </g>
</svg>
